<?xml version="1.0" encoding="UTF-8"?>
<svg width="640" height="328" version="1.1" viewBox="0 0 500.00001 500.00001" xmlns="http://www.w3.org/2000/svg">
 <g transform="translate(0 -552.36)">
  <rect y="552.36" width="500" height="500" fill-opacity="0"/>
  <path style="fill: #9a9a9a;" d="m269.73 630.56c-94.886-10.895-180.64 57.194-191.53 152.08-10.895 94.886 57.194 180.64 152.08 191.53s180.64-57.194 191.53-152.08c10.895-94.886-57.194-180.64-152.08-191.53zm-1.7746 15.455c86.351 9.915 148.31 87.953 138.4 174.3-9.915 86.351-87.953 148.31-174.3 138.4-86.351-9.915-148.31-87.953-138.4-174.3 9.915-86.351 87.953-148.31 174.3-138.4z" fill="#55555f" fill-opacity=".94118"/>
  <path style="fill: #9a9a9a;" d="m345.92 701a2.462 2.462 0 0 0 -1.7766 0.71991 2.462 2.462 0 0 0 -0.45258 2.8523l-4.4437 4.4437c-7.4842 2.4304-44.035 14.754-61.222 29.083-18.152 15.133-42.419 44.599-61.231 59.113l-24.549 7.2286c5.5805-9.6894 8.2454-20.185 8.2454-20.185s-12.886 3.1428-23.239 10.001c-9.119 6.0407-28.758 25.3-33.535 30.026l-1.4946-1.4946-3.869 3.869 2.6923 2.6923c-0.61622 0.99132-7.0276 11.315-10.02 17.076-2.2672 4.3652-4.3616 11.658-4.3616 11.658s7.2924-2.0944 11.658-4.3616c5.7611-2.9923 16.085-9.4037 17.076-10.02l2.6923 2.6923 3.869-3.869-1.503-1.503c0.94052-0.95587 1.5333-1.5478 3.688-3.7743l12.498 2.3724c16.957 3.2194 5.0444 21.217 8.4559 24.629 3.4114 3.4114 21.411-8.5009 24.631 8.4559l2.3702 12.479c-2.2274 2.1636-2.8208 2.7595-3.7764 3.7027l-1.4504-1.4504-3.8711 3.8711 2.6923 2.6923c-0.6171 0.99272-7.0258 11.315-10.018 17.076-2.2672 4.3652-4.3616 11.656-4.3616 11.656s7.2903-2.0944 11.656-4.3616c5.7608-2.9921 16.085-9.4008 17.078-10.018l2.6902 2.6902 3.869-3.869-1.5451-1.5451c4.7182-4.7879 23.94-24.464 29.961-33.602 6.8353-10.376 10.068-23.17 10.068-23.17s-10.489 2.5697-20.145 8.1085l7.1887-24.412c14.514-18.812 43.98-43.078 59.113-61.231 14.329-17.187 26.653-53.738 29.083-61.222l4.4437-4.4437a2.462 2.462 0 0 0 2.8523 -0.45257 2.462 2.462 0 0 0 0 -3.4817 2.462 2.462 0 0 0 -1.7051 -0.71991zm-55.872 46.521a11.951 11.951 0 0 1 8.277 3.5007 11.951 11.951 0 0 1 0 16.901 11.951 11.951 0 0 1 -16.903 0 11.951 11.951 0 0 1 0 -16.901 11.951 11.951 0 0 1 8.6264 -3.5007zm-146.42 84.409 9.1905 9.1905c-1.406 0.8014-6.2265 3.5409-9.6831 5.3362-2.8977 1.505-8.6558 3.8122-8.6558 3.8122s2.3093-5.7582 3.8143-8.6559c1.7953-3.4566 4.533-8.2771 5.3341-9.6831zm64.649 64.652 9.1884 9.1863c-1.4072 0.80206-6.2251 3.5412-9.681 5.3362-2.8977 1.505-8.6558 3.8122-8.6559 3.8122 0 0 2.3072-5.756 3.8122-8.6537 1.7947-3.4554 4.5335-8.2726 5.3362-9.681z" fill="#55555f" fill-opacity=".94118" fill-rule="evenodd"/>
 </g>
</svg>
