<?xml version="1.0" standalone="no"?>
<!DOCTYPE svg PUBLIC "-//W3C//DTD SVG 20010904//EN"
 "http://www.w3.org/TR/2001/REC-SVG-20010904/DTD/svg10.dtd">
<svg version="1.0" xmlns="http://www.w3.org/2000/svg"
 width="39" height="35" viewBox="0 0 640 575"
 preserveAspectRatio="xMidYMid meet">
<metadata>
Created by potrace 1.15, written by Peter Selinger 2001-2017
</metadata>
<g transform="translate(0.000000,575.000000) scale(0.100000,-0.100000)"
fill="#ffeb3b" stroke="none">
<path d="M3845 5736 c-299 -50 -562 -180 -776 -384 -372 -354 -537 -876 -438
-1388 33 -173 121 -398 203 -516 l25 -38 -147 0 c-193 0 -546 -25 -653 -46
-23 -4 -31 3 -74 68 -156 236 -379 456 -630 621 -167 110 -454 237 -535 237
-70 0 -115 -37 -246 -200 -224 -281 -400 -632 -484 -970 -60 -241 -79 -394
-87 -681 -13 -484 53 -879 214 -1279 96 -239 256 -520 326 -571 61 -44 369
-192 547 -262 590 -233 1198 -339 1860 -324 423 10 773 61 1170 171 218 60
524 172 660 241 58 29 131 115 246 290 238 362 384 779 425 1219 14 157 7 457
-16 606 -35 229 -117 511 -209 712 l-35 76 38 51 38 51 164 3 c176 4 221 13
366 74 215 91 415 294 514 522 65 152 83 244 84 421 0 188 -14 266 -57 307
l-29 28 -441 2 -440 2 -33 75 c-81 186 -177 328 -320 471 -203 203 -433 330
-720 396 -117 26 -392 35 -510 15z"/>
</g>
</svg>
